<?xml version="1.0" encoding="UTF-8" standalone="no"?>
<svg
   xmlns:dc="http://purl.org/dc/elements/1.1/"
   xmlns:cc="http://creativecommons.org/ns#"
   xmlns:rdf="http://www.w3.org/1999/02/22-rdf-syntax-ns#"
   xmlns:svg="http://www.w3.org/2000/svg"
   xmlns="http://www.w3.org/2000/svg"
   xmlns:sodipodi="http://sodipodi.sourceforge.net/DTD/sodipodi-0.dtd"
   xmlns:inkscape="http://www.inkscape.org/namespaces/inkscape"
   version="1.1"
   width="160"
   height="71.037338"
   id="svg2"
   inkscape:version="0.48.3.1 r9886"
   sodipodi:docname="ibm.svg">
  <metadata
     id="metadata10">
    <rdf:RDF>
      <cc:Work
         rdf:about="">
        <dc:format>image/svg+xml</dc:format>
        <dc:type
           rdf:resource="http://purl.org/dc/dcmitype/StillImage" />
      </cc:Work>
    </rdf:RDF>
  </metadata>
  <defs
     id="defs8" />
  <sodipodi:namedview
     pagecolor="#ffffff"
     bordercolor="#666666"
     borderopacity="1"
     objecttolerance="10"
     gridtolerance="10"
     guidetolerance="10"
     inkscape:pageopacity="0"
     inkscape:pageshadow="2"
     inkscape:window-width="1305"
     inkscape:window-height="853"
     id="namedview6"
     showgrid="false"
     fit-margin-top="0"
     fit-margin-left="0"
     fit-margin-right="0"
     fit-margin-bottom="0"
     inkscape:zoom="3.7561512"
     inkscape:cx="86.842351"
     inkscape:cy="24.662876"
     inkscape:window-x="0"
     inkscape:window-y="27"
     inkscape:window-maximized="0"
     inkscape:current-layer="svg2" />
  <g
     id="g2984"
     transform="scale(0.83123676,0.83123676)">
    <rect
       y="0"
       x="0"
       height="85.459816"
       width="192.48427"
       id="rect2982"
       style="fill:#ffffff;fill-opacity:1;stroke:none" />
    <path
       style="fill:#1f70c1"
       inkscape:connector-curvature="0"
       id="path4"
       d="m 9.5842791,8.407999 0,4.65239 33.0902349,0 0,-4.65239 -33.0902349,0 z m 37.7785169,0 0,4.65239 47.155077,0 c -2e-6,0 -4.816631,-4.65239 -11.196093,-4.65239 l -35.958984,0 z m 56.405474,0 0,4.65239 28.52812,0 -1.69336,-4.65239 -26.83476,0 z m 48.98125,0 -1.69336,4.65239 28.26913,0 0,-4.65239 -26.57577,0 z m -143.1652409,9.047776 0,4.652388 33.0902349,0 0,-4.652388 -33.0902349,0 z m 37.7785169,0.0066 0,4.645798 52.626954,0 c 0,2e-6 -0.614657,-3.580679 -1.686721,-4.645798 l -50.940233,0 z m 56.405474,0 0,4.645798 31.65585,0 -1.56718,-4.645798 -30.08867,0 z m 45.59452,0 -1.56718,4.645798 31.52968,0 0,-4.645798 -29.9625,0 z m -130.269136,9.041176 0,4.658977 14.330468,0 0,-4.658977 -14.330468,0 z m 37.778516,0 0,4.658977 14.330467,0 0,-4.658977 -14.330467,0 z m 28.269141,0 0,4.658977 14.330469,0 c 2e-6,0 0.90977,-2.460413 0.90977,-4.658977 l -15.240239,0 z m 28.136329,0 0,4.658977 25.40703,0 -1.69336,-4.658977 -23.71367,0 z m 32.96406,0 -1.7,4.658977 25.5332,0 0,-4.658977 -23.8332,0 z m -127.148046,9.054367 0,4.652387 14.330468,0 0,-4.652387 -14.330468,0 z m 37.778516,0 0,4.652387 36.603126,0 c 2e-6,-2e-6 3.061912,-2.387189 4.0375,-4.652387 l -40.640626,0 z m 56.40547,0 0,4.652387 14.33047,0 0,-2.589786 0.90976,2.589786 26.2504,0 0.97616,-2.589786 0,2.589786 14.33047,0 0,-4.652387 -26.90117,0 -1.42773,3.940689 -1.43437,-3.940689 -27.03399,0 z m -94.183986,9.047775 0,4.652387 14.330468,0 0,-4.652387 -14.330468,0 z m 37.778516,0 0,4.652387 40.640626,0 c -0.9758,-2.257819 -4.0375,-4.652387 -4.0375,-4.652387 l -36.603126,0 z m 56.40547,0 0,4.652387 14.33047,0 0,-4.652387 -14.33047,0 z m 16.93359,0 1.73321,4.652387 19.68281,0 1.64688,-4.652387 -23.0629,0 z m 25.5332,0 0,4.652387 14.33047,0 0,-4.652387 -14.33047,0 z m -136.650776,9.047777 0,4.652384 14.330468,0 0,-4.652384 -14.330468,0 z m 37.778516,0 0,4.652384 14.330467,0 0,-4.652384 -14.330467,0 z m 28.269141,0 0,4.652384 15.240239,0 c 0,-2.195603 -0.90977,-4.652384 -0.90977,-4.652384 l -14.330469,0 z m 28.136329,0 0,4.652384 14.33047,0 0,-4.652384 -14.33047,0 z m 20.1875,0 1.68007,4.652384 13.19493,0 1.69336,-4.652384 -16.56836,0 z m 22.27929,0 0,4.652384 14.33047,0 0,-4.652384 -14.33047,0 z m -145.9011678,9.047775 0,4.658976 33.0902368,0 0,-4.658976 -33.0902368,0 z m 37.5195338,0 0,4.658976 50.940233,0 c 1.072064,-1.066806 1.686721,-4.658976 1.686721,-4.658976 l -52.626954,0 z m 56.664454,0 0,4.658976 23.58086,0 0,-4.658976 -23.58086,0 z m 32.69844,0 1.72656,4.658976 6.71368,0 1.6203,-4.658976 -10.06054,0 z m 19.01874,0 0,4.658976 23.83985,0 0,-4.658976 -23.83985,0 z m -145.9011678,9.054364 0,4.652391 33.0902368,0 0,-4.652391 -33.0902368,0 z m 37.5195338,0 0,4.645801 35.958984,0 c 6.37946,-4e-6 11.196093,-4.645801 11.196093,-4.645801 l -47.155077,0 z m 56.664454,0 0,4.652391 23.58086,0 0,-4.652391 -23.58086,0 z m 35.97226,0 1.66016,4.639209 0.28555,0.0066 1.68672,-4.645801 -3.63243,0 z m 15.74492,0 0,4.652391 23.83985,0 0,-4.652391 -23.83985,0 z" />
  </g>
</svg>
