<?xml version="1.0" encoding="UTF-8" standalone="no"?>
<!-- Generator: Adobe Illustrator 11.0, SVG Export Plug-In  -->

<svg
   xmlns:a="http://ns.adobe.com/AdobeSVGViewerExtensions/3.0/"
   xmlns:dc="http://purl.org/dc/elements/1.1/"
   xmlns:cc="http://creativecommons.org/ns#"
   xmlns:rdf="http://www.w3.org/1999/02/22-rdf-syntax-ns#"
   xmlns:svg="http://www.w3.org/2000/svg"
   xmlns="http://www.w3.org/2000/svg"
   xmlns:sodipodi="http://sodipodi.sourceforge.net/DTD/sodipodi-0.dtd"
   xmlns:inkscape="http://www.inkscape.org/namespaces/inkscape"
   width="130"
   height="96.005104"
   viewBox="-0.004 -0.281 130 96.005101"
   xml:space="preserve"
   id="svg2"
   version="1.1"
   inkscape:version="0.48.3.1 r9886"
   sodipodi:docname="seat.svg"><metadata
   id="metadata117"><rdf:RDF><cc:Work
       rdf:about=""><dc:format>image/svg+xml</dc:format><dc:type
         rdf:resource="http://purl.org/dc/dcmitype/StillImage" /></cc:Work></rdf:RDF></metadata><sodipodi:namedview
   pagecolor="#ffffff"
   bordercolor="#666666"
   borderopacity="1"
   objecttolerance="10"
   gridtolerance="10"
   guidetolerance="10"
   inkscape:pageopacity="0"
   inkscape:pageshadow="2"
   inkscape:window-width="1056"
   inkscape:window-height="780"
   id="namedview115"
   showgrid="false"
   fit-margin-top="0"
   fit-margin-left="0"
   fit-margin-right="0"
   fit-margin-bottom="0"
   inkscape:zoom="2.0413113"
   inkscape:cx="89.71953"
   inkscape:cy="17.924749"
   inkscape:window-x="0"
   inkscape:window-y="27"
   inkscape:window-maximized="0"
   inkscape:current-layer="svg2" />
	<defs
   id="defs4">
	</defs>
	<g
   id="g6"
   transform="matrix(0.14689398,0,0,0.14689398,-0.004,-0.28095558)">
		<path
   d="M 694.623,23.429 C 645.125,11.055 502.77,-1.512 351.178,7.963 202.658,17.247 199.566,86.864 193.382,136.367 c -6.188,49.503 4.638,303.212 4.638,303.212 0,0 150.061,20.598 244.435,19.58 94.373,-1.014 245.053,14.543 259.899,-93.834 15.475,-112.929 -7.731,-341.896 -7.731,-341.896 z"
   id="path8"
   inkscape:connector-curvature="0"
   style="fill:#a41d23" />
		<polygon
   points="409.435,591.193 277.941,591.193 277.941,566.445 417.164,566.445 417.164,547.879 234.617,547.879 234.617,653.074 417.164,653.074 417.164,634.512 277.941,634.512 277.941,609.756 409.435,609.756 "
   id="polygon10"
   style="fill:#a41d23" />
		<path
   d="m 163.988,594.291 c 0,0 -84.314,-3.098 -96.69,-3.098 -12.376,0 -20.886,-3.092 -20.886,-15.467 0,-8.479 11.545,-9.256 21.659,-9.291 v 0.01 H 188.206 V 547.879 H 46.844 c 0,0 -42.201,-1.547 -42.201,29.395 0,25.521 14.695,31.711 37.901,31.711 23.205,0 81.995,3.873 92.825,3.873 0,0 14.695,1.426 14.695,11.604 0,6.184 -3.868,10.051 -10.827,10.051 H 6.187 v 18.564 c 0,0 144.355,0 152.624,0 8.269,0 32.245,-3.867 32.245,-29.391 0,-23.981 -13.144,-27.846 -27.068,-29.395 z"
   id="path12"
   inkscape:connector-curvature="0"
   style="fill:#a41d23" />
		<polygon
   points="696.563,548.109 696.563,570.082 769.961,570.082 769.961,653.074 810.012,653.074 810.012,570.082 884.992,570.082 884.992,548.109 "
   id="polygon14"
   style="fill:#a41d23" />
		<path
   d="m 504.341,547.879 c -20.083,0 -39.452,13.934 -39.452,30.17 l -0.01,75.518 h 37.142 v -39.943 h 111.601 v 39.451 h 37.13 V 547.879 H 504.341 z m -2.32,47.182 v -7.729 c 0,-8.119 7.729,-19.334 21.653,-19.334 h 89.947 v 27.063 h -111.6 l 0,0 z"
   id="path16"
   inkscape:connector-curvature="0"
   style="fill:#a41d23" />
		<path
   d="M 689.985,18.788 C 640.483,6.414 498.127,-6.155 346.535,3.323 198.02,12.607 194.923,82.221 188.739,131.724 c -6.184,49.503 4.643,303.217 4.643,303.217 0,0 150.061,20.594 244.435,19.582 94.368,-1.014 245.048,14.537 259.898,-93.836 15.476,-112.935 -7.73,-341.899 -7.73,-341.899 z"
   id="path18"
   inkscape:connector-curvature="0"
   style="fill:#e2001a" />
		<path
   d="m 207.302,133.275 c 0,0 -1.425,-66.375 34.033,-86.641 43.319,-24.746 156.25,-46.411 428.538,-12.373 0,0 3.086,86.631 3.086,92.82 0,0 -202.721,-17.374 -239.786,-14.443 -26.298,2.075 -13.924,15.994 0,18.028 0,0 204.208,33.55 239.786,41.273 v 35.595 c 0,0.002 -320.235,-63.431 -465.657,-74.259 z"
   id="path20"
   inkscape:connector-curvature="0"
   style="fill:#b2b2b2;stroke:#b2b2b2;stroke-width:0.44999999" />
		<path
   d="m 205.761,158.022 c 0,0 358.911,55.698 467.198,81.996 0,0 0,24.757 0,32.492 0,0 -365.1,-82 -465.657,-91.281 l -1.541,-23.207 z"
   id="path22"
   inkscape:connector-curvature="0"
   style="fill:#b2b2b2;stroke:#b2b2b2;stroke-width:0.44999999" />
		<path
   d="m 207.302,207.536 c 0,0 351.181,54.146 465.657,99.006 0,0 9.282,74.259 -27.843,97.464 -53.12,33.203 -253.71,32.488 -433.171,10.828 0,0 -4.643,-85.086 0,-126.865 0,0 198.114,14.709 241.342,20.118 24.747,3.097 24.756,-9.281 9.281,-18.567 0,0 -191.834,-52.6 -253.721,-60.331 l -1.545,-21.653 z"
   id="path24"
   inkscape:connector-curvature="0"
   style="fill:#b2b2b2;stroke:#b2b2b2;stroke-width:0.44999999" />
		<path
   d="m 216.588,142.557 c 0,0 -1.43,-66.379 34.033,-86.641 43.319,-24.747 156.245,-46.411 428.528,-12.373 0,0 3.092,86.63 3.092,92.825 0,0 -202.723,-17.379 -239.786,-14.454 -26.298,2.075 -13.925,16.004 0,18.029 0,0 204.211,33.55 239.786,41.285 v 35.583 c 0,0 -320.236,-63.428 -465.653,-74.254 z"
   id="path26"
   inkscape:connector-curvature="0"
   style="fill:#4d4d4d;stroke:#4d4d4d;stroke-width:0.44999999" />
		<path
   d="m 215.037,167.303 c 0,0 358.921,55.697 467.204,82 0,0 0,24.752 0,32.487 0,0 -365.095,-82 -465.653,-91.282 l -1.551,-23.205 z"
   id="path28"
   inkscape:connector-curvature="0"
   style="fill:#4d4d4d;stroke:#4d4d4d;stroke-width:0.44999999" />
		<path
   d="m 216.588,216.811 c 0,0 351.177,54.151 465.653,99.012 0,0 9.286,74.261 -27.844,97.466 -53.119,33.201 -253.716,32.486 -433.171,10.828 0,0 -4.638,-85.088 0,-126.861 0,0 198.113,14.705 241.342,20.113 24.747,3.097 24.756,-9.281 9.28,-18.563 0,0 -191.833,-52.604 -253.72,-60.335 l -1.54,-21.66 z"
   id="path30"
   inkscape:connector-curvature="0"
   style="fill:#4d4d4d;stroke:#4d4d4d;stroke-width:0.44999999" />
		
			<linearGradient
   id="XMLID_16_"
   gradientUnits="userSpaceOnUse"
   x1="110.9033"
   y1="326.47711"
   x2="629.15778"
   y2="326.47711"
   gradientTransform="matrix(0.9,0,0,-0.9,111.363,410.582)">
			<stop
   offset="0"
   style="stop-color: rgb(156, 157, 159);"
   id="stop33" />
			<stop
   offset="0.0705"
   style="stop-color: rgb(162, 163, 165);"
   id="stop35" />
			<stop
   offset="0.1654"
   style="stop-color: rgb(176, 177, 179);"
   id="stop37" />
			<stop
   offset="0.2743"
   style="stop-color: rgb(198, 199, 201);"
   id="stop39" />
			<stop
   offset="0.3925"
   style="stop-color: rgb(228, 229, 229);"
   id="stop41" />
			<stop
   offset="0.4888"
   style="stop-color: rgb(255, 255, 255);"
   id="stop43" />
			<stop
   offset="0.5653"
   style="stop-color: rgb(251, 251, 252);"
   id="stop45" />
			<stop
   offset="0.6612"
   style="stop-color: rgb(240, 240, 241);"
   id="stop47" />
			<stop
   offset="0.7676"
   style="stop-color: rgb(221, 222, 223);"
   id="stop49" />
			<stop
   offset="0.8814"
   style="stop-color: rgb(193, 194, 196);"
   id="stop51" />
			<stop
   offset="1"
   style="stop-color: rgb(156, 157, 159);"
   id="stop53" />
			<a:midPointStop
   offset="0"
   style="stop-color:#9C9D9F" />
			<a:midPointStop
   offset="0.5"
   style="stop-color:#9C9D9F" />
			<a:midPointStop
   offset="0.0705"
   style="stop-color:#A2A3A5" />
			<a:midPointStop
   offset="0.5"
   style="stop-color:#A2A3A5" />
			<a:midPointStop
   offset="0.1654"
   style="stop-color:#B0B1B3" />
			<a:midPointStop
   offset="0.5"
   style="stop-color:#B0B1B3" />
			<a:midPointStop
   offset="0.2743"
   style="stop-color:#C6C7C9" />
			<a:midPointStop
   offset="0.5"
   style="stop-color:#C6C7C9" />
			<a:midPointStop
   offset="0.3925"
   style="stop-color:#E4E5E5" />
			<a:midPointStop
   offset="0.5"
   style="stop-color:#E4E5E5" />
			<a:midPointStop
   offset="0.4888"
   style="stop-color:#FFFFFF" />
			<a:midPointStop
   offset="0.5"
   style="stop-color:#FFFFFF" />
			<a:midPointStop
   offset="0.5653"
   style="stop-color:#FBFBFC" />
			<a:midPointStop
   offset="0.5"
   style="stop-color:#FBFBFC" />
			<a:midPointStop
   offset="0.6612"
   style="stop-color:#F0F0F1" />
			<a:midPointStop
   offset="0.5"
   style="stop-color:#F0F0F1" />
			<a:midPointStop
   offset="0.7676"
   style="stop-color:#DDDEDF" />
			<a:midPointStop
   offset="0.5"
   style="stop-color:#DDDEDF" />
			<a:midPointStop
   offset="0.8814"
   style="stop-color:#C1C2C4" />
			<a:midPointStop
   offset="0.5"
   style="stop-color:#C1C2C4" />
			<a:midPointStop
   offset="1"
   style="stop-color:#9C9D9F" />
		</linearGradient>
		<path
   d="m 211.945,137.918 c 0,0 -1.43,-66.379 34.033,-86.643 43.319,-24.747 156.245,-46.411 428.533,-12.373 0,0 3.093,86.628 3.093,92.822 0,0 -202.723,-17.374 -239.786,-14.448 -26.299,2.075 -13.931,16 0,18.029 0,0 204.207,33.549 239.786,41.28 v 35.588 c -0.001,0 -320.241,-63.426 -465.659,-74.255 z"
   id="path55"
   style="fill:url(#XMLID_16_)"
   inkscape:connector-curvature="0" />
		
			<linearGradient
   id="XMLID_17_"
   gradientUnits="userSpaceOnUse"
   x1="110.9009"
   y1="211.8589"
   x2="629.15747"
   y2="211.8589"
   gradientTransform="matrix(0.9,0,0,-0.9,111.363,410.582)">
			<stop
   offset="0"
   style="stop-color: rgb(156, 157, 159);"
   id="stop58" />
			<stop
   offset="0.0705"
   style="stop-color: rgb(162, 163, 165);"
   id="stop60" />
			<stop
   offset="0.1654"
   style="stop-color: rgb(176, 177, 179);"
   id="stop62" />
			<stop
   offset="0.2743"
   style="stop-color: rgb(198, 199, 201);"
   id="stop64" />
			<stop
   offset="0.3925"
   style="stop-color: rgb(228, 229, 229);"
   id="stop66" />
			<stop
   offset="0.4888"
   style="stop-color: rgb(255, 255, 255);"
   id="stop68" />
			<stop
   offset="0.5653"
   style="stop-color: rgb(251, 251, 252);"
   id="stop70" />
			<stop
   offset="0.6612"
   style="stop-color: rgb(240, 240, 241);"
   id="stop72" />
			<stop
   offset="0.7676"
   style="stop-color: rgb(221, 222, 223);"
   id="stop74" />
			<stop
   offset="0.8814"
   style="stop-color: rgb(193, 194, 196);"
   id="stop76" />
			<stop
   offset="1"
   style="stop-color: rgb(156, 157, 159);"
   id="stop78" />
			<a:midPointStop
   offset="0"
   style="stop-color:#9C9D9F" />
			<a:midPointStop
   offset="0.5"
   style="stop-color:#9C9D9F" />
			<a:midPointStop
   offset="0.0705"
   style="stop-color:#A2A3A5" />
			<a:midPointStop
   offset="0.5"
   style="stop-color:#A2A3A5" />
			<a:midPointStop
   offset="0.1654"
   style="stop-color:#B0B1B3" />
			<a:midPointStop
   offset="0.5"
   style="stop-color:#B0B1B3" />
			<a:midPointStop
   offset="0.2743"
   style="stop-color:#C6C7C9" />
			<a:midPointStop
   offset="0.5"
   style="stop-color:#C6C7C9" />
			<a:midPointStop
   offset="0.3925"
   style="stop-color:#E4E5E5" />
			<a:midPointStop
   offset="0.5"
   style="stop-color:#E4E5E5" />
			<a:midPointStop
   offset="0.4888"
   style="stop-color:#FFFFFF" />
			<a:midPointStop
   offset="0.5"
   style="stop-color:#FFFFFF" />
			<a:midPointStop
   offset="0.5653"
   style="stop-color:#FBFBFC" />
			<a:midPointStop
   offset="0.5"
   style="stop-color:#FBFBFC" />
			<a:midPointStop
   offset="0.6612"
   style="stop-color:#F0F0F1" />
			<a:midPointStop
   offset="0.5"
   style="stop-color:#F0F0F1" />
			<a:midPointStop
   offset="0.7676"
   style="stop-color:#DDDEDF" />
			<a:midPointStop
   offset="0.5"
   style="stop-color:#DDDEDF" />
			<a:midPointStop
   offset="0.8814"
   style="stop-color:#C1C2C4" />
			<a:midPointStop
   offset="0.5"
   style="stop-color:#C1C2C4" />
			<a:midPointStop
   offset="1"
   style="stop-color:#9C9D9F" />
		</linearGradient>
		<path
   d="m 210.399,162.666 c 0,0 358.917,55.696 467.205,81.995 0,0 0,24.751 0,32.491 0,0 -365.101,-82.006 -465.658,-91.281 l -1.547,-23.205 z"
   id="path80"
   style="fill:url(#XMLID_17_)"
   inkscape:connector-curvature="0" />
		
			<linearGradient
   id="XMLID_18_"
   gradientUnits="userSpaceOnUse"
   x1="110.9014"
   y1="96.767601"
   x2="629.44482"
   y2="96.767601"
   gradientTransform="matrix(0.9,0,0,-0.9,111.363,410.582)">
			<stop
   offset="0"
   style="stop-color: rgb(156, 157, 159);"
   id="stop83" />
			<stop
   offset="0.0705"
   style="stop-color: rgb(162, 163, 165);"
   id="stop85" />
			<stop
   offset="0.1654"
   style="stop-color: rgb(176, 177, 179);"
   id="stop87" />
			<stop
   offset="0.2743"
   style="stop-color: rgb(198, 199, 201);"
   id="stop89" />
			<stop
   offset="0.3925"
   style="stop-color: rgb(228, 229, 229);"
   id="stop91" />
			<stop
   offset="0.4888"
   style="stop-color: rgb(255, 255, 255);"
   id="stop93" />
			<stop
   offset="0.5653"
   style="stop-color: rgb(251, 251, 252);"
   id="stop95" />
			<stop
   offset="0.6612"
   style="stop-color: rgb(240, 240, 241);"
   id="stop97" />
			<stop
   offset="0.7676"
   style="stop-color: rgb(221, 222, 223);"
   id="stop99" />
			<stop
   offset="0.8814"
   style="stop-color: rgb(193, 194, 196);"
   id="stop101" />
			<stop
   offset="1"
   style="stop-color: rgb(156, 157, 159);"
   id="stop103" />
			<a:midPointStop
   offset="0"
   style="stop-color:#9C9D9F" />
			<a:midPointStop
   offset="0.5"
   style="stop-color:#9C9D9F" />
			<a:midPointStop
   offset="0.0705"
   style="stop-color:#A2A3A5" />
			<a:midPointStop
   offset="0.5"
   style="stop-color:#A2A3A5" />
			<a:midPointStop
   offset="0.1654"
   style="stop-color:#B0B1B3" />
			<a:midPointStop
   offset="0.5"
   style="stop-color:#B0B1B3" />
			<a:midPointStop
   offset="0.2743"
   style="stop-color:#C6C7C9" />
			<a:midPointStop
   offset="0.5"
   style="stop-color:#C6C7C9" />
			<a:midPointStop
   offset="0.3925"
   style="stop-color:#E4E5E5" />
			<a:midPointStop
   offset="0.5"
   style="stop-color:#E4E5E5" />
			<a:midPointStop
   offset="0.4888"
   style="stop-color:#FFFFFF" />
			<a:midPointStop
   offset="0.5"
   style="stop-color:#FFFFFF" />
			<a:midPointStop
   offset="0.5653"
   style="stop-color:#FBFBFC" />
			<a:midPointStop
   offset="0.5"
   style="stop-color:#FBFBFC" />
			<a:midPointStop
   offset="0.6612"
   style="stop-color:#F0F0F1" />
			<a:midPointStop
   offset="0.5"
   style="stop-color:#F0F0F1" />
			<a:midPointStop
   offset="0.7676"
   style="stop-color:#DDDEDF" />
			<a:midPointStop
   offset="0.5"
   style="stop-color:#DDDEDF" />
			<a:midPointStop
   offset="0.8814"
   style="stop-color:#C1C2C4" />
			<a:midPointStop
   offset="0.5"
   style="stop-color:#C1C2C4" />
			<a:midPointStop
   offset="1"
   style="stop-color:#9C9D9F" />
		</linearGradient>
		<path
   d="m 211.945,212.173 c 0,0 351.176,54.152 465.658,99.012 0,0 9.28,74.254 -27.85,97.459 -53.12,33.203 -253.71,32.488 -433.166,10.834 0,0 -4.643,-85.088 0,-126.867 0,0 198.113,14.71 241.343,20.114 24.746,3.098 24.757,-9.275 9.28,-18.562 0,0 -191.833,-52.605 -253.72,-60.331 l -1.545,-21.659 z"
   id="path105"
   style="fill:url(#XMLID_18_)"
   inkscape:connector-curvature="0" />
		<polygon
   points="404.79,586.549 273.297,586.549 273.297,561.803 412.526,561.803 412.526,543.24 229.973,543.24 229.973,648.432 412.526,648.432 412.526,629.869 273.297,629.869 273.297,605.111 404.79,605.111 "
   id="polygon107"
   style="fill:#e2001a" />
		<path
   d="m 159.35,589.652 c 0,0 -84.319,-3.098 -96.693,-3.098 -12.376,0 -20.886,-3.096 -20.886,-15.469 0,-8.477 11.545,-9.252 21.657,-9.293 v 0.012 H 183.563 V 543.24 H 42.204 c 0,0 -42.204,-1.551 -42.204,29.391 0,25.525 14.698,31.715 37.903,31.715 23.205,0 81.995,3.869 92.822,3.869 0,0 14.695,1.43 14.695,11.602 0,6.186 -3.868,10.053 -10.827,10.053 H 1.546 v 18.563 c 0,0 144.358,0 152.626,0 8.268,0 32.245,-3.863 32.245,-29.391 0.001,-23.981 -13.148,-27.839 -27.067,-29.39 z"
   id="path109"
   inkscape:connector-curvature="0"
   style="fill:#e2001a" />
		<polygon
   points="691.924,543.473 691.924,565.439 765.324,565.439 765.324,648.432 805.369,648.432 805.369,565.439 880.354,565.439 880.354,543.473 "
   id="polygon111"
   style="fill:#e2001a" />
		<path
   d="m 499.698,543.24 c -20.078,0 -39.451,13.93 -39.451,30.166 l -0.01,75.52 h 37.14 V 608.98 h 111.606 v 39.451 h 37.13 V 543.24 H 499.698 z m -2.322,47.178 v -7.73 c 0,-8.113 7.73,-19.334 21.66,-19.334 h 89.947 v 27.064 H 497.376 z"
   id="path113"
   inkscape:connector-curvature="0"
   style="fill:#e2001a" />
	</g>
</svg>